<svg width="56" height="55" viewBox="0 0 56 55" fill="none" xmlns="http://www.w3.org/2000/svg">
<path d="M27.8748 0.00174215C12.4757 0.00174215 0 12.4879 0 27.8766C0 40.199 7.98614 50.6433 19.0542 54.328C20.4532 54.5911 20.9584 53.7287 20.9584 52.9831C20.9584 52.321 20.9427 50.5702 20.9323 48.2461C13.1743 49.9256 11.5402 44.4987 11.5402 44.4987C10.2701 41.2861 8.43736 40.4237 8.43736 40.4237C5.91469 38.7007 8.63771 38.7373 8.63771 38.7373C11.4322 38.9272 12.9026 41.6032 12.9026 41.6032C15.3886 45.868 19.4253 44.6346 21.0229 43.9168C21.2668 42.1206 21.9932 40.8854 22.7842 40.1972C16.596 39.4986 10.0889 37.1031 10.0889 26.4219C10.0889 23.3713 11.1691 20.887 12.9548 18.9357C12.6465 18.2371 11.7022 15.3974 13.2005 11.5576C13.2005 11.5576 15.5332 10.8137 20.8661 14.4165C23.0978 13.798 25.4671 13.4897 27.8348 13.474C30.2041 13.4897 32.5717 13.7998 34.8035 14.4165C40.1049 10.8137 42.4359 11.5576 42.4359 11.5576C43.9325 15.3974 42.9882 18.2354 42.7164 18.9357C44.4847 20.887 45.5649 23.373 45.5649 26.4219C45.5649 37.1275 39.0492 39.4882 32.854 40.1694C33.8226 41.0039 34.7303 42.7199 34.7303 45.3245C34.7303 49.0527 34.6955 52.0562 34.6955 52.9639C34.6955 53.6887 35.1833 54.5597 36.6188 54.2793C47.7687 50.6329 55.7462 40.1798 55.7462 27.8748C55.7462 12.4862 43.2704 0 27.8713 0L27.8748 0.00174215Z" fill="white" fill-opacity="0.7"/>
</svg>
