<svg width="194" height="225" viewBox="0 0 194 225" fill="none" xmlns="http://www.w3.org/2000/svg">
<path d="M0 168.229V56.0231L97 0L194 56.0231V107.404H169.35V70.269L97 28.4917L24.6502 70.269V153.984L97 195.921L169.35 153.984V117.008H194V168.229L97 224.413L0 168.229Z" fill="white"/>
<path d="M27.8516 152.486V72.1329L97.1601 32.3333L166.469 72.6699V107.404H150.142V81.4736L97.1601 50.2607L43.6981 81.1534V142.366L97.1601 173.672L150.142 142.619V117.008H166.469V152.063L97.1601 192.399L27.8516 152.486Z" fill="white"/>
<path d="M46.7402 140.819V83.0357L97.001 54.1023L146.949 83.6681V107.452H132.23V91.2572L97.001 70.5453L62.0846 91.2572V133.225L97.001 153.235L132.23 133.225V117.008H147.262V140.502L97.001 170.31L46.7402 140.819Z" fill="white"/>
<ellipse cx="97.3199" cy="112.206" rx="21.4488" ry="21.6089" fill="white"/>
</svg>
