<svg width="57" height="44" viewBox="0 0 57 44" fill="none" xmlns="http://www.w3.org/2000/svg">
<path d="M48.1632 4.28352C44.5559 2.61183 40.7139 1.38006 36.6667 0.676193C36.1681 1.55603 35.5815 2.75847 35.2003 3.72629C30.9184 3.08108 26.6659 3.08108 22.472 3.72629C22.0614 2.75847 21.4748 1.55603 20.9763 0.676193C16.929 1.38006 13.0871 2.61183 9.47976 4.28352C2.20645 15.2521 0.241483 25.9568 1.2093 36.4855C6.0484 40.0928 10.7115 42.2631 15.316 43.7001C16.4598 42.1458 17.4569 40.4741 18.3368 38.7437C16.6651 38.1279 15.0814 37.336 13.5857 36.4268C13.9962 36.1336 14.3775 35.811 14.7588 35.5177C23.9384 39.7995 33.8805 39.7995 42.9428 35.5177C43.3241 35.8403 43.7054 36.1336 44.1159 36.4268C42.6202 37.336 41.0072 38.0985 39.3648 38.7437C40.2447 40.4741 41.2418 42.1458 42.3856 43.7001C46.9901 42.2631 51.6825 40.0928 56.4923 36.4855C57.6361 24.2558 54.5273 13.6684 48.2219 4.28352H48.1632ZM19.5685 30.0334C16.8117 30.0334 14.5535 27.4818 14.5535 24.3438C14.5535 21.2057 16.7531 18.6542 19.5685 18.6542C22.384 18.6542 24.6129 21.2057 24.5836 24.3438C24.5836 27.4525 22.384 30.0334 19.5685 30.0334ZM38.0744 30.0334C35.3176 30.0334 33.0593 27.4818 33.0593 24.3438C33.0593 21.2057 35.2589 18.6542 38.0744 18.6542C40.8899 18.6542 43.1188 21.2057 43.0895 24.3438C43.0895 27.4525 40.8899 30.0334 38.0744 30.0334Z" fill="white" fill-opacity="0.7"/>
</svg>
