<svg width="55" height="42" viewBox="0 0 55 42" fill="none" xmlns="http://www.w3.org/2000/svg">
<path d="M53.9768 14.3066C54.3884 13.9794 55.0006 14.2855 55.0006 14.8027V36.3868C55.0006 39.1838 52.7313 41.4531 49.9344 41.4531H6.02716C3.23018 41.4531 0.960938 39.1838 0.960938 36.3868V14.8132C0.960938 14.2855 1.56255 13.9899 1.98474 14.3171C4.34897 16.1536 7.48369 18.4862 18.2494 26.3072C20.4764 27.9326 24.2339 31.3523 27.9808 31.3312C31.7488 31.3629 35.5801 27.8693 37.7227 26.3072C48.4884 18.4862 51.6126 16.1431 53.9768 14.3066ZM27.9808 27.9432C30.4294 27.9854 33.9547 24.8612 35.7279 23.5735C49.7338 13.4094 50.7999 12.5229 54.0296 9.98974C54.6417 9.51478 55.0006 8.77596 55.0006 7.99492V5.98954C55.0006 3.19257 52.7313 0.923325 49.9344 0.923325H6.02716C3.23018 0.923325 0.960938 3.19257 0.960938 5.98954V7.99492C0.960938 8.77596 1.31979 9.50423 1.93196 9.98974C5.16168 12.5123 6.22769 13.4094 20.2337 23.5735C22.0069 24.8612 25.5321 27.9854 27.9808 27.9432Z" fill="white" fill-opacity="0.7"/>
</svg>
